<svg width="21" height="26" viewBox="0 0 21 26" fill="none" xmlns="http://www.w3.org/2000/svg">
<path d="M17.1499 13.346C17.1621 12.3861 17.4141 11.445 17.8824 10.6101C18.3506 9.77527 19.02 9.07385 19.8282 8.5711C19.3147 7.82917 18.6374 7.21859 17.85 6.78785C17.0626 6.35712 16.1868 6.1181 15.2921 6.08978C13.3837 5.88708 11.5335 7.24533 10.5609 7.24533C9.56959 7.24533 8.07223 6.1099 6.45983 6.14347C5.41688 6.17756 4.40044 6.48444 3.50955 7.03421C2.61866 7.58398 1.8837 8.35788 1.37629 9.28051C-0.821733 13.1312 0.817791 18.7904 2.92331 21.903C3.97675 23.4271 5.20791 25.1296 6.81886 25.0692C8.39528 25.0031 8.98404 24.0521 10.8869 24.0521C12.7721 24.0521 13.3245 25.0692 14.9681 25.0309C16.6597 25.0031 17.7255 23.4999 18.7419 21.9614C19.4988 20.8753 20.0813 19.6751 20.4676 18.405C19.4849 17.9844 18.6462 17.2804 18.0562 16.3808C17.4663 15.4811 17.151 14.4256 17.1499 13.346Z" fill="white"/>
<path d="M14.045 4.04264C14.9672 2.92231 15.4215 1.4823 15.3115 0.0284424C13.9026 0.178195 12.6011 0.859636 11.6665 1.93699C11.2095 2.4633 10.8595 3.0756 10.6365 3.73888C10.4135 4.40217 10.3218 5.10343 10.3668 5.80257C11.0715 5.80992 11.7687 5.65534 12.4058 5.35049C13.0429 5.04564 13.6034 4.59847 14.045 4.04264Z" fill="white"/>
</svg>
