<svg width="24" height="24" viewBox="0 0 24 24" fill="none" xmlns="http://www.w3.org/2000/svg">
<path d="M3.66771 6.05643L5.96055 3.76359C6.37245 3.35169 7.04782 3.37763 7.42691 3.8199L9.24297 5.93864C9.92309 6.73212 9.87765 7.91545 9.13867 8.65443L7.96552 9.82759C8.95862 12.8069 12.5172 15 14.1724 16.0345L15.2213 15.0569C15.9238 14.4022 16.9924 14.3392 17.767 14.9068L20.0595 16.5866C20.5539 16.949 20.609 17.6669 20.1755 18.1004L18.0094 20.2665C17.5495 20.7264 16.8936 20.9385 16.2568 20.806C6.54518 18.7859 3.84404 13.1205 3.10827 7.6618C3.02841 7.06928 3.24495 6.47919 3.66771 6.05643Z" stroke="#303030" stroke-width="1.8" stroke-linecap="round" stroke-linejoin="round"/>
<path d="M14.25 5.37783C13.7529 5.37783 13.35 5.78078 13.35 6.27783C13.35 6.77489 13.7529 7.17783 14.25 7.17783V5.37783ZM16.85 9.77783C16.85 10.2749 17.2529 10.6778 17.75 10.6778C18.2471 10.6778 18.65 10.2749 18.65 9.77783L16.85 9.77783ZM14.75 2.37783C14.2529 2.37783 13.85 2.78078 13.85 3.27783C13.85 3.77489 14.2529 4.17783 14.75 4.17783V2.37783ZM19.85 9.27783C19.85 9.77489 20.2529 10.1778 20.75 10.1778C21.2471 10.1778 21.65 9.77489 21.65 9.27783L19.85 9.27783ZM14.25 7.17783C15.0344 7.17783 15.8535 7.54316 16.2246 7.91429L17.4974 6.6415C16.7575 5.90154 15.4656 5.37783 14.25 5.37783V7.17783ZM18.65 9.77783C18.65 8.61039 18.2662 7.41029 17.4974 6.6415L16.2246 7.91429C16.5669 8.25658 16.85 8.94527 16.85 9.77783L18.65 9.77783ZM14.75 4.17783C15.6195 4.17783 17.1237 4.36899 18.4468 5.69212L19.7196 4.41933C17.9317 2.63142 15.8805 2.37783 14.75 2.37783V4.17783ZM21.65 9.27783C21.65 8.1836 21.5241 6.22386 19.7196 4.41933L18.4468 5.69212C19.7533 6.99862 19.85 8.37207 19.85 9.27783L21.65 9.27783Z" fill="#303030"/>
</svg>
