<svg width="28" height="28" viewBox="0 0 28 28" fill="none" xmlns="http://www.w3.org/2000/svg">
<path d="M26.9423 12.6244C26.3814 12.643 25.9415 13.1128 25.96 13.6737C26.0586 16.6584 24.9891 19.5026 22.9482 21.6829C20.9075 23.8629 18.1399 25.118 15.1554 25.2165C15.0309 25.2206 14.9072 25.2226 14.7833 25.2226C10.889 25.2224 7.3015 23.1999 5.27547 19.923L8.80805 20.8702C9.35021 21.0155 9.90758 20.6939 10.053 20.1517C10.1983 19.6095 9.87668 19.0522 9.33452 18.9067L3.58898 17.3662C3.32863 17.2965 3.05113 17.333 2.81777 17.4676C2.58426 17.6023 2.41392 17.8243 2.34407 18.0847L0.803695 23.8304C0.658316 24.3725 0.97997 24.9298 1.52213 25.0753C1.61035 25.0989 1.69881 25.1103 1.78598 25.1103C2.23463 25.1103 2.64532 24.8108 2.76704 24.3568L3.63288 21.1275C6.04155 24.9203 10.2342 27.2555 14.7828 27.2553C14.9289 27.2553 15.0758 27.2529 15.2225 27.2481C18.7497 27.1315 22.0205 25.6484 24.4323 23.0719C26.8442 20.4954 28.1082 17.1339 27.9917 13.6066C27.9732 13.0458 27.5032 12.6045 26.9423 12.6244Z" fill="white"/>
</svg>
